<?xml version="1.0" encoding="UTF-8" standalone="no"?>
<svg
   viewBox="0 0 1020 1837"
   xml:space="preserve"
   fill-rule="evenodd"
   clip-rule="evenodd"
   stroke-linejoin="round"
   stroke-miterlimit="2"
   version="1.1"
   id="svg11"
   sodipodi:docname="harms-icons-1-3.svg"
   inkscape:version="1.3 (0e150ed6c4, 2023-07-21)"
   xmlns:inkscape="http://www.inkscape.org/namespaces/inkscape"
   xmlns:sodipodi="http://sodipodi.sourceforge.net/DTD/sodipodi-0.dtd"
   xmlns="http://www.w3.org/2000/svg"
   xmlns:svg="http://www.w3.org/2000/svg"><defs
     id="defs11" /><sodipodi:namedview
     id="namedview11"
     pagecolor="#ffffff"
     bordercolor="#999999"
     borderopacity="1"
     inkscape:showpageshadow="0"
     inkscape:pageopacity="0"
     inkscape:pagecheckerboard="0"
     inkscape:deskcolor="#d1d1d1"
     inkscape:zoom="0.10955362"
     inkscape:cx="-1852.9739"
     inkscape:cy="2469.1106"
     inkscape:window-width="1920"
     inkscape:window-height="1011"
     inkscape:window-x="0"
     inkscape:window-y="0"
     inkscape:window-maximized="1"
     inkscape:current-layer="svg11" /><ellipse
     cx="518"
     cy="464.4"
     rx="132"
     ry="136.6"
     transform="matrix(1.40123 0 0 1.35452 -519 -426)"
     fill="#fff"
     id="ellipse1" /><ellipse
     cx="518"
     cy="464.4"
     rx="132"
     ry="136.6"
     transform="matrix(1.40123 0 0 1.35452 77 -414)"
     fill="#fff"
     id="ellipse2" /><ellipse
     cx="518"
     cy="464.4"
     rx="132"
     ry="136.6"
     transform="matrix(1.40123 0 0 1.35452 -519 523)"
     fill="#fff"
     id="ellipse3" /><ellipse
     cx="518"
     cy="464.4"
     rx="132"
     ry="136.6"
     transform="matrix(1.40123 0 0 1.35452 84 521)"
     fill="#fff"
     id="ellipse4" /><ellipse
     cx="518"
     cy="464.4"
     rx="132"
     ry="136.6"
     transform="matrix(1.40123 0 0 1.35452 -510 997)"
     fill="#fff"
     id="ellipse5" /><ellipse
     cx="518"
     cy="464.4"
     rx="132"
     ry="136.6"
     transform="matrix(1.40123 0 0 1.35452 80 992)"
     fill="#fff"
     id="ellipse6" /><ellipse
     cx="518"
     cy="464.4"
     rx="132"
     ry="136.6"
     transform="matrix(1.40123 0 0 1.35452 -521 75)"
     fill="#fff"
     id="ellipse7" /><ellipse
     cx="518"
     cy="464.4"
     rx="132"
     ry="136.6"
     transform="matrix(1.42016 0 0 1.37282 79 69)"
     fill="#fff"
     id="ellipse8" /><path
     d="M187 1A211 211 0 0 0 69 55a207 207 0 0 0-26 280c8 11 29 32 39 40a206 206 0 0 0 214 23 212 212 0 0 0 120-162 267 267 0 0 0 0-55A212 212 0 0 0 299 21 208 208 0 0 0 187 1m603 0c-48 6-91 26-125 61a209 209 0 0 0-60 119 208 208 0 0 0 60 175 206 206 0 0 0 273 19 286 286 0 0 0 39-40c37-49 51-109 38-168A212 212 0 0 0 874 10c-26-9-57-12-83-9m-3 46a60 60 0 0 0-36 18c-6 6-9 9-12 16a53 53 0 0 0-6 28 62 62 0 0 0 46 60c7 1 23 2 27 0 2 0 2-1-3-3-14-8-26-27-30-46a64 64 0 0 1 32-67l8-4-5-1c-7-1-16-2-21-1m32 15a36 36 0 0 0-28 18c-13 19-9 50 8 68 6 7 12 10 20 13l6 1 6-4a61 61 0 0 0 24-64c-3-9-8-20-15-27-6-7-5-6-21-5m-714 45-8 1-15 6c-8 3-11 6-17 12-7 7-9 10-13 18-7 15-8 16-8 58 1 40 1 42 7 56a69 69 0 0 0 60 38h7l-5-6a169 169 0 0 1-28-52l-3-16c0-9 0-8-9-9-4-1-8-4-9-8-2-7 2-11 12-13h5v-5a92 92 0 0 1 14-37c7-10 23-31 29-37l6-7h-12l-14 1m54 2a64 64 0 0 0-15 8c-11 9-36 42-41 55a87 87 0 0 0-4 18l-1 3h13l15 2c4 3 5 10 2 15-3 2-3 2-16 3H97v3c0 23 27 67 48 77 5 2 6 2 30 3h24l1-2c2-5 6-10 8-10s4 2 5 7l1 5h19c16 0 20 0 21 2 1 1 2 1 8-3a229 229 0 0 0 31-26c8-10 18-40 18-53v-5h-10c-9 0-10 0-13-2-2-3-3-6-1-9 2-2 6-3 17-5l8-1-2-6c-4-19-15-41-26-54-8-9-14-13-30-22l-12-6h-23v8c-1 7-1 7-4 10s-4 3-6 3c-6-2-7-4-8-13v-8h-34l-9 3m126-1c5 4 16 16 20 23a161 161 0 0 1 22 50l3 12h13c12 0 13 0 15 2 3 4 2 10-2 13-2 2-5 2-14 3h-11v7a148 148 0 0 1-3 15 248 248 0 0 1-16 41c-4 8-21 25-36 35l-6 4 21 21 21 20v-58l7-1a70 70 0 0 0 50-48c2-7 3-8 3-45 0-42-1-43-8-58a65 65 0 0 0-29-30c-13-6-17-7-36-8h-17l3 2m489 70c-25 4-49 22-61 45-10 19-11 28-11 91l1 46 17 1h18v-8c2-10 2-23 3-58 0-30 2-45 6-60 5-22 16-37 33-47 6-4 18-9 23-10h-29m39 9c-28 6-50 24-56 47-5 14-5 21-5 64a568 568 0 0 1-2 46l-1 11v6h139v-54c0-58 0-61-5-74-6-17-18-32-33-42l-7-4-11-1-19 1M187 474c-72 8-137 55-168 122a206 206 0 0 0 66 253l-2-10a69 69 0 0 1 0-30 64 64 0 0 1 46-47 73 73 0 0 1 29 0 64 64 0 0 1 40 31c4 8 5 12 15 55l10 42 7-1a209 209 0 0 0 185-177 247 247 0 0 0 0-58 209 209 0 0 0-60-120 208 208 0 0 0-168-60m603 0a213 213 0 0 0-88 31 194 194 0 0 0-38 30c-33 33-53 74-60 119a272 272 0 0 0 0 56 209 209 0 0 0 60 119c9 9 26 23 27 23l1-25c0-27 1-36 6-51a114 114 0 0 1 31-49l-2 7c-10 27-13 41-10 49a16 16 0 0 0 12 11c13 1 20-6 50-47l26-39a110 110 0 0 1 11-14c1 0 2-1-4 14a534 534 0 0 0-15 56c-3 17 0 33 7 43 5 6 9 8 14 8 6 0 9-1 16-6 11-9 23-26 41-60a566 566 0 0 1 13-25c1-2 10 7 16 15 5 6 5 6 5 16a76 76 0 0 0 8 32c4 8 7 12 11 11a7 7 0 0 1 2-1l1 28v27l7-5c10-7 31-29 39-39a207 207 0 0 0 32-190 210 210 0 0 0-219-144m7 45a84 84 0 0 0-69 90l4 18 3-4c18-29 69-90 79-97l10-5 4-1-4-1h-27m33 2c4 2 5 4 5 10 0 9-4 20-16 44l-26 54-19 39-3 7 5 2a83 83 0 0 0 21 7l3 1 27-41 33-50c7-10 20-25 25-26h3l-2-4a89 89 0 0 0-43-40c-8-3-16-5-13-3m-23 35-12 15a787 787 0 0 0-53 70c-2 3-2 3 0 7 2 5 14 17 15 16l24-48a6581 6581 0 0 1 31-65l-5 5m84 36-9 15a659 659 0 0 0-38 71c0 2 14-7 23-14a93 93 0 0 0 25-41c2-7 3-27 2-33l-1-4-2 6M99 642a58 58 0 0 0-5 114c7 2 21 2 27 0a60 60 0 0 0 43-44 63 63 0 0 0-2-32 59 59 0 0 0-63-38m683 56-17 6-9 3-4 9a302 302 0 0 0-19 58 1289 1289 0 0 0 57-78l-9 2m54 2a852 852 0 0 0-19 60c-3 11-3 22 0 27 4 11 14 3 29-22l28-54-24-11c-12-4-13-4-14 0M189 947a209 209 0 0 0-129 63c-80 83-79 211 2 292a207 207 0 0 0 294 0 209 209 0 0 0 60-175 209 209 0 0 0-60-119 208 208 0 0 0-167-61m602 0a212 212 0 0 0-183 161 218 218 0 0 0 0 94c9 38 29 73 57 101a206 206 0 0 0 233 42 211 211 0 0 0 121-170 210 210 0 0 0-93-194 263 263 0 0 0-40-21 211 211 0 0 0-95-13m28 94c-2 5-6 7-9 3-2-2-3-2-5-1a46 46 0 0 0-16 18l-2 6-2-4c-2-4-4-5-16-6-8-1-15 0-19 2l-3 2 2 4c3 6 0 13-6 10-3-1-3-1-4 2l-1 3-1 2h-5a32 32 0 0 0-23 1 34 34 0 0 0-13 14c-5 13-9 77-6 96 2 12 5 17 11 20a21 21 0 0 0 15 1c5-1 6-9 7-60l1-33 3-2c6-2 7 3 5 36-1 30 0 47 3 53s5 7 16 7c10 0 10 0 13-3l4-9c2-6 2-11 2-49 1-47 1-49 6-49l2 1v53c-1 56-1 54 6 58 3 2 5 3 13 3 11 0 17-3 24-10l5-5v-12l1-24a746 746 0 0 0 1-33c1-26 3-33 8-31a425 425 0 0 1 0 48 681 681 0 0 0 0 57l7 6c5 2 7 3 16 3a59 59 0 0 0 15-2c9-3 14-10 18-24 2-7 2-10 2-36l1-31c2-4 4-1 6 8 3 11 3 47 1 58-4 15-8 23-17 30-5 4-9 5-19 6-7 0-8 0-26-6l-11-4-8 3c-8 3-9 4-20 4l-17-1c-5 0-6 0-9 2-4 3-7 8-7 12 0 5 3 7 15 11 13 3 27 8 38 14a55 55 0 0 0 42 6l19-9-2-4c-1-4-1-7 2-9 3-1 5 0 8 5 2 4 2 4 6 4 5-1 17-8 23-13 13-12 14-27 4-53l-5-16c-2-7-4-25-6-49-2-25-4-34-7-44a70 70 0 0 0-19-27c-2-2-2-2-5 4a55 55 0 0 1-7 9c-3 3-4 3-5 2s0-3 4-10c5-10 5-11-4-11-6 0-12 2-16 5l-3 2-5-5a34 34 0 0 0-20-10c-4-1-5-1-6 1m-720 15a63 63 0 0 0-30 18 54 54 0 0 0-13 17c-7 14-7 17-8 50 0 31 1 46 4 56a70 70 0 0 0 44 44l8 3h153l29 29a804 804 0 0 0 29 28l1-29c0-28 0-29 2-29a81 81 0 0 0 24-9c8-4 18-15 23-23l7-14 2-8v-40c0-39 0-40-2-46a68 68 0 0 0-42-45l-9-4H214c-103 0-108 0-115 2m118 11c-5 3-6 5-5 23 0 18 2 42 4 50 2 12 7 17 15 16 10-1 14-10 11-27l-5-31a301 301 0 0 0-5-27c-3-5-10-6-15-4m80 20c-2 2-2 4-2 15v13l-12-7a99 99 0 0 0-14-8l-4 3c-2 1-2 3-2 6 0 4 0 5 4 9s7 6 21 14l5 3-3 3c-6 7-15 13-19 13l-5 2c-3 2-3 3-3 7 0 6 1 9 5 12 7 4 13 2 25-7l7-4 3 10c1 7 2 9 5 11 4 4 8 3 12-1 2-2 2-3 2-15v-13l7 4c9 5 22 11 25 11 4 0 7-9 3-13l-9-6c-10-5-23-14-23-15l11-14 11-14c1-3-2-9-4-10-4-2-6 0-19 10l-11 7a344 344 0 0 1-3-13 55 55 0 0 0-4-13c-2-3-6-2-9 0m-169 5c-30 6-50 23-58 51a90 90 0 0 0-1 40 63 63 0 0 0 47 45c25 5 56-7 77-31 6-7 14-18 15-22 1-2-2-7-5-7l-9 9c-14 16-27 27-39 31-8 3-23 5-29 4a53 53 0 0 1-32-15 51 51 0 0 1 2-72 70 70 0 0 1 42-17c34 0 50 29 35 62-6 15-16 14-19-1-1-9-1-11 1-13v-17l2-11c0-8 0-8-2-11l-4-2c-2 0-5 3-6 7 0 3-1 4-3 1-2-2-9-5-13-5-15 0-29 21-29 43l1 12c4 15 16 26 26 24 5-1 11-6 14-11l3-5 2 4c3 5 7 9 12 10 4 1 5 1 9-1 18-8 27-36 21-60a58 58 0 0 0-28-38 78 78 0 0 0-24-5l-8 1m-3 44c-7 4-11 11-12 24-1 12 3 21 10 21 3 0 8-4 11-10 5-8 9-28 6-32s-9-5-15-3m105 42c-6 3-9 9-9 17 0 9 5 15 13 15 9 0 15-7 15-17 0-12-9-19-19-15m-41 242c-38 4-75 19-106 42a285 285 0 0 0-40 40 207 207 0 0 0 19 273 207 207 0 0 0 294 1 210 210 0 0 0 60-172 210 210 0 0 0-61-123 211 211 0 0 0-94-55c-20-5-51-8-72-6m607 0c-39 3-78 18-111 43a222 222 0 0 0-52 57c-21 35-30 68-30 108a212 212 0 0 0 201 209 210 210 0 0 0 194-300 193 193 0 0 0-40-56c-19-19-34-30-58-42a206 206 0 0 0-104-19m-599 31a177 177 0 0 0-113 52 181 181 0 0 0-50 95 192 192 0 0 0 2 72 181 181 0 0 0 95 118c42 21 95 24 140 7a183 183 0 0 0 98-91 169 169 0 0 0 17-75c0-49-18-92-52-127a175 175 0 0 0-98-50l-39-2m6 25a24 24 0 0 0-21 21l-1 5c-7-4-11-5-16-5a21 21 0 0 0-18 12 26 26 0 0 0-3 7c0 2-1 3-3 4l-2 1 2 2c2 2 2 3 2 25v23l-5-2a22 22 0 0 0-15 2c-3 1-3 1-11-7l-9-8-3 5a132 132 0 0 0-18 46c-2 10-2 32 0 42a131 131 0 0 0 24 56c3 5 5 8 8 18a73 73 0 0 0 16 31 89 89 0 0 0 39 24 122 122 0 0 0 41 6c14 0 16 0 25-2a85 85 0 0 0 49-36 106 106 0 0 0 19-53v-7l7 6 7 7 5-10a116 116 0 0 0 15-60 109 109 0 0 0-7-42c-10-28-32-54-57-69a20 20 0 0 1-9-8c-6-11-13-14-24-11l-7 2c-1 0-2-1-2-4-3-15-13-23-28-21m-1 15a14 14 0 0 0-7 8l-1 2h12l12-1-1-4c-3-5-10-8-15-5m506 37c-19 1-23 2-29 5-11 6-19 27-22 55v84c4 40 14 56 35 59a2869 2869 0 0 0 234 0c19-3 28-17 34-53 3-21 2-88-1-105-3-10-8-25-11-30-3-6-9-11-15-13a180 180 0 0 0-24-2H708m-554 33a255 255 0 0 0 1 41c0 5 0 6 9 14 8 9 9 9 12 8l3-1v-61l-12-12a178 178 0 0 0-12-12l-1 23m37 36 1 24h8l14 1h6l-1-21-28-27v23m529-19a10 10 0 0 0-5 8l10 22 10 20-4 9a1111 1111 0 0 1-16 34c0 8 9 12 15 7l9-15 6-13 7 14c6 12 8 14 10 16 5 2 8 1 11-3s3-8-4-21l-9-20-4-8 10-20 9-22c0-7-6-11-13-9-3 2-4 4-10 16l-7 14-6-13c-7-13-8-16-13-17-2-1-4 0-6 1m69-1c-3 2-5 5-5 9l10 22 10 20-10 21a158 158 0 0 0-10 22c0 4 2 7 6 9h7c3-2 4-3 10-15a132 132 0 0 1 7-14l8 14c7 15 9 17 16 15 4-1 6-4 6-9 0-2-3-10-9-22a226 226 0 0 1-10-21l10-20c6-12 9-20 9-22 0-5-2-8-6-9-7-2-9 0-17 15a124 124 0 0 1-7 14l-7-13c-8-16-11-19-18-16m70 0c-3 0-6 5-6 8l10 23 9 20-3 7-10 20c-6 14-7 18-4 22s6 4 11 3c3-2 4-3 10-16l7-14 6 13a65 65 0 0 0 9 15c3 3 8 2 11 0 5-5 5-7-6-29l-10-20 10-21c6-11 10-22 10-23 0-4-4-8-8-9-6-1-8 2-16 18l-6 13-7-14c-6-13-7-14-10-16a18 18 0 0 0-4-1l-3 1m-723 11 6 6-1-4c-1-4-5-8-9-8-2 0-2 0 3 6m94 29v5l6 1 5-1-5-5-6-5v5m0 65 50 49 3-6c4-9 6-21 7-38v-15l-17-18-18-17-16-1-37-2-20-1 49 49m-101 50a66 66 0 0 0 16 19 82 82 0 0 0 25 14c17 6 30 7 44 5l11-1a73 73 0 0 0 46-27l-7 3a127 127 0 0 1-56 12c-26 0-50-7-72-23-7-5-8-5-7-2"
     fill-opacity=".4"
     id="path8" /><path
     d="M193 1A207 207 0 0 0 62 62a206 206 0 0 0 0 294 209 209 0 0 0 171 60c47-6 88-26 123-60a199 199 0 0 0 42-61c51-109-3-238-117-282a217 217 0 0 0-88-12m602 0a211 211 0 0 0-162 100 207 207 0 0 0 13 234c8 11 29 32 40 40a212 212 0 0 0 101 41c12 2 40 1 52 0a211 211 0 0 0 177-166A209 209 0 0 0 902 21C871 6 830-2 795 1m-14 47a63 63 0 0 0-49 64 64 64 0 0 0 47 57 81 81 0 0 0 27 1c2-1 1-2-4-5a71 71 0 0 1-28-40 78 78 0 0 1 1-33 61 61 0 0 1 34-41l5-2-4-1a82 82 0 0 0-29-1m31 16c-13 4-23 15-28 29a73 73 0 0 0 2 35c3 9 9 18 14 23 6 6 15 11 22 12 3 0 5 0 8-3 7-4 15-14 19-21a54 54 0 0 0 7-30 62 62 0 0 0-17-43l-4-4h-10l-13 2m-711 44c-4 0-15 4-20 7a75 75 0 0 0-30 30c-6 13-7 19-7 57 0 40 1 44 8 58a69 69 0 0 0 57 38h9l-7-10c-17-23-27-46-29-66v-7l-6-1c-8-1-11-3-12-8-2-7 1-11 12-12 5-1 5-1 6-5 2-16 6-27 13-37a463 463 0 0 1 28-37l7-8h-13l-16 1m56 3c-9 3-11 4-18 11a221 221 0 0 0-36 49 76 76 0 0 0-6 23l14 1c12 0 13 1 15 3 3 3 4 8 1 12-2 3-5 4-20 4H97v4l2 11c3 18 23 49 39 61 9 7 13 8 38 8h22l4-6c3-6 6-8 8-6l3 6 2 6h18l21 1c2 1 3 1 7-2l31-25c5-5 9-14 13-28 5-13 8-30 6-32h-9c-11 0-14-1-15-5-2-6 2-9 17-11a43 43 0 0 0 8-1 126 126 0 0 0-30-62c-8-9-15-13-32-22-8-4-8-4-19-4h-12v6c0 11-5 17-12 14-5-2-6-4-6-13v-7h-18c-18 0-18 0-26 3m129 1a82 82 0 0 1 19 23 147 147 0 0 1 21 47l3 13h8l12-1c4 0 5 0 7 2 3 4 3 8 1 12-2 3-8 5-20 5l-7 1a151 151 0 0 1-11 44c-7 18-10 22-16 28a261 261 0 0 1-34 29 939 939 0 0 0 42 42l1-29v-30l6-1 15-6a69 69 0 0 0 35-40l2-8v-40c0-39 0-40-2-46a69 69 0 0 0-36-42c-11-5-19-7-37-7h-15l6 4m493 67a88 88 0 0 0-75 65c-2 7-2 10-3 63v56h37v-12l2-41c0-54 3-71 13-91a65 65 0 0 1 30-31 89 89 0 0 1 21-8c2 0 2 0 1-1h-26m36 10c-25 3-49 20-57 39l-5 18c-2 10-2 13-2 52a452 452 0 0 1-2 49 62 62 0 0 0-1 12v4h140v-55c-1-60-1-60-6-75a94 94 0 0 0-34-41c-6-3-7-3-18-4l-15 1M192 474c-48 4-95 25-130 61A208 208 0 0 0 2 653c-2 14-2 44 0 59a213 213 0 0 0 42 97 266 266 0 0 0 35 35c5 5 6 5 6 3a92 92 0 0 1-4-25c0-49 52-78 94-54a76 76 0 0 1 23 24c4 8 5 10 16 56l9 42a205 205 0 0 0 137-65 206 206 0 0 0 38-228 212 212 0 0 0-140-117c-20-5-45-7-66-6m605 0a209 209 0 0 0-193 229 210 210 0 0 0 62 127l24 21 1-26a131 131 0 0 1 21-78c6-8 18-23 18-19l-7 19c-8 22-9 31-5 38 7 13 20 12 34-4 6-7 29-37 52-71 15-21 15-21 8 2-10 30-16 55-16 67 0 15 7 30 16 35 10 5 23-3 36-21a300 300 0 0 0 28-47l12-24 4 4 17 18 1 5c-1 2 1 22 4 29 4 13 10 21 14 20 3-1 3 1 3 28l1 25a207 207 0 0 0 75-242 213 213 0 0 0-123-122 213 213 0 0 0-87-13m5 44c-19 2-38 12-52 27a83 83 0 0 0-20 79l2 4 8-13c16-22 29-39 54-68 18-21 24-26 33-26 12 0 11 17-5 48l-25 51a3475 3475 0 0 1-20 42c-7 14-7 13 0 16a96 96 0 0 0 23 7l54-80a314 314 0 0 1 16-24c6-7 12-12 15-12 2 0 3-1 3-2 0-2-8-13-13-20a84 84 0 0 0-55-29l-10-1-8 1m-3 47a879 879 0 0 0-45 58c-16 23-15 21-12 26a75 75 0 0 0 15 16l18-37a7843 7843 0 0 1 38-79l-13 16m92 25-10 17a752 752 0 0 0-15 25l-24 47a83 83 0 0 0 52-78l-1-13c0-3-1-3-2 2M94 643a60 60 0 0 0-28 16 55 55 0 0 0-17 41c0 16 5 28 17 40a46 46 0 0 0 16 12 56 56 0 0 0 30 6 58 58 0 0 0 13-114 66 66 0 0 0-31-1m688 55c-10 2-23 7-26 10-4 3-14 31-20 50-4 17-4 19 0 14a955 955 0 0 0 55-74c2-4 3-4-9-1m54 1c-3 4-14 40-20 62-4 14-3 28 2 31 3 2 6 1 10-3 7-6 16-21 31-50 16-30 16-27 4-32-12-6-26-10-27-8M196 947a206 206 0 0 0-135 62c-32 32-52 72-59 116a222 222 0 0 0 5 80 212 212 0 0 0 137 148 206 206 0 0 0 179-24c26-17 49-41 65-68a206 206 0 0 0-33-253 203 203 0 0 0-159-61m603 0a210 210 0 0 0-175 118 205 205 0 0 0-11 154 209 209 0 0 0 212 144 206 206 0 0 0 133-61 206 206 0 0 0 61-133c6-85-43-167-123-204a199 199 0 0 0-98-18m20 95-3 3c-2 1-5 0-6-3-1-1-1-1-6 2-6 4-10 8-14 16l-2 6-2-3c-2-5-5-6-16-7-11 0-16 0-19 3-3 2-3 2-2 5 2 3 2 7 0 10-2 2-4 3-6 0-2-1-2-1-3 1l-2 5-1 3-3-2c-8-4-21-1-30 6-8 6-11 17-13 51-2 33-1 59 3 68a19 19 0 0 0 22 9c3-1 4-2 5-6 2-5 3-23 4-57l1-31c1-2 4-3 6-1v50a131 131 0 0 0 2 35l5 7c4 4 5 5 18 3 6 0 7-1 9-3 5-9 5-10 5-56l2-46c1-4 4-6 5-4l1 59-1 42c0 4 2 8 8 11 9 5 23 3 33-5l6-7c2-3 3-26 5-71 1-23 2-28 5-29 3-2 4 1 3 20a521 521 0 0 1-1 28l-2 32v22l3 4c5 5 9 7 23 7 11 0 13-1 17-3 7-3 11-9 14-20 3-8 3-10 4-39l1-32h1c5 0 8 35 6 55-4 32-16 47-39 47-7 0-9 0-18-3-18-7-17-7-25-4a56 56 0 0 1-31 4c-11-1-13-1-17 3-5 4-7 13-4 17l11 4c13 3 24 7 39 14 7 3 15 7 19 7 11 3 22 2 37-5l8-4-2-4c-2-4-2-7 2-9 2-1 4 1 8 7 2 3 3 3 12-1 13-6 23-16 26-25v-22l-5-16-6-17-6-48a192 192 0 0 0-7-46 79 79 0 0 0-14-21c-6-7-6-7-11 0-5 8-8 11-10 11-2-1-2-2 4-12l3-8-8-1c-7 0-13 2-17 5l-2 2-2-2c-5-8-14-13-23-14-5 0-5 0-6 3m-712 12a67 67 0 0 0-38 20 68 68 0 0 0-18 28c-2 8-2 8-3 43 0 41 0 46 8 61 4 8 6 11 13 18a63 63 0 0 0 31 18c8 2 12 2 82 2h74l29 29 30 29 1-29v-29l3-1a70 70 0 0 0 52-44l3-9 1-38c0-44 0-46-7-61-6-12-18-24-30-30-16-8-7-7-123-8l-108 1m110 13c-5 3-5 6-5 22 0 24 3 49 6 58 3 8 11 11 18 7 4-3 7-8 7-13a1082 1082 0 0 0-13-73c-3-2-9-2-13-1m81 20c-2 2-3 3-3 15v13l-12-7c-12-8-16-9-18-5l-2 6c0 4 1 5 5 10l15 10 10 6c0 1-13 13-16 14l-7 2c-6 1-7 4-7 11 1 4 1 6 4 8 6 6 14 5 27-5a65 65 0 0 1 6-5l2 9c3 11 5 14 11 15 3 0 4 0 7-3 2-2 2-2 2-16l-1-13 10 5c16 10 21 11 24 10 2 0 3-2 3-4 2-6 0-8-9-13l-17-10-8-6 11-13c10-12 12-15 12-18 0-4-3-7-7-7-2 0-8 4-22 15l-4 3-3-12-5-15c-1-2-5-3-8 0m-176 7c-13 3-21 7-29 14a74 74 0 0 0-25 65c4 31 26 53 57 56 26 2 60-17 78-44 5-8 6-12 4-15-3-3-6-1-14 9-20 22-37 32-59 34-26 2-51-18-54-45a51 51 0 0 1 24-50c20-12 46-13 62-2 4 3 10 12 12 18 3 14-1 35-9 44-7 6-13 3-15-8-1-9-1-12 1-14v-18l1-11c1-6 1-7-1-9-4-5-7-4-9 3l-2 4-4-3c-8-6-17-5-26 3a48 48 0 0 0-14 39c1 8 1 11 4 16 7 15 19 20 30 14 3-2 9-10 9-12s2-1 3 3c3 6 8 10 14 10 12 0 24-13 28-33 7-30-11-63-37-69a77 77 0 0 0-29 1m1 44c-6 4-9 11-10 21-1 14 3 22 9 22 5 0 10-4 13-10a93 93 0 0 0 6-26c0-5 0-6-3-8-5-3-10-3-15 1m107 41c-6 3-9 9-9 15 0 13 10 20 20 14s11-24 1-29c-5-3-7-3-12 0m-50 243c-45 6-86 27-118 59a206 206 0 0 0 0 294 205 205 0 0 0 234 42 208 208 0 0 0 102-275 199 199 0 0 0-42-61 206 206 0 0 0-123-60 302 302 0 0 0-53 1m606-1c-46 6-88 27-122 60a207 207 0 0 0-55 199 212 212 0 0 0 161 152 206 206 0 0 0 188-57c56-56 76-138 51-212a211 211 0 0 0-170-141 310 310 0 0 0-53-1m-604 31c-39 6-74 24-101 52a175 175 0 0 0-50 124c0 49 18 93 54 127 34 34 76 51 124 51s91-18 125-52a179 179 0 0 0 51-101c2-12 2-40 0-52a180 180 0 0 0-132-145 183 183 0 0 0-70-4m15 24c-9 4-16 13-16 23v3l-4-3c-4-2-5-2-11-2-11 0-19 5-22 15l-3 7c-2 2-2 2-1 4 2 1 2 4 2 24 0 22 0 23-2 22a31 31 0 0 0-18 1l-4 1-8-7-8-8-3 5a128 128 0 0 0 7 144c3 4 4 8 6 16a85 85 0 0 0 16 31c11 13 29 23 51 28 11 3 35 4 43 3 12-2 28-8 36-13a105 105 0 0 0 33-37c6-13 10-30 10-42v-7l7 7c8 8 7 8 14-6 15-30 17-66 7-97a129 129 0 0 0-58-71c-4-2-6-4-7-6-1-4-6-10-9-12-4-2-15-2-20 0-5 3-5 2-5-1 0-8-6-18-13-21a32 32 0 0 0-20-1m2 15c-3 1-6 6-6 9l3 1 12-1h9v-3l-4-5c-4-3-10-4-14-1m551 35a943 943 0 0 0-60 2c-15 2-23 11-29 32-5 17-6 27-6 67s0 48 5 68c5 22 12 30 26 34a1948 1948 0 0 0 247-1c10-4 15-11 20-25 6-18 7-28 8-65l-1-48c-2-24-8-44-17-53-6-7-11-9-30-10-21-1-93-2-163-1m-597 28c-1 16-1 26 1 46v8l9 8 9 9 3-2 3-1v-38l1-23-26-25v18m37 42v24h5l15 1h9l-1-20-14-14-14-15v24m709-20c-2 1-5 6-10 16l-7 14-7-13-8-15c-3-3-9-3-12 0-5 4-4 8 7 29l9 20-9 21a106 106 0 0 0-10 23c0 7 10 11 15 5l8-15 7-13 7 15 9 15c7 4 15-3 13-11l-10-21-9-19 10-20a207 207 0 0 0 10-22c0-4-3-8-6-9h-7m-182 2c-4 5-3 8 7 29l10 20-10 20c-10 22-11 25-7 29 3 3 8 4 11 2a75 75 0 0 0 9-15l7-15 7 14 9 16c3 2 9 1 12-2 4-4 3-7-7-28a226 226 0 0 1-10-21l10-20c10-21 11-24 7-29-4-3-10-3-13 0l-8 15-7 13-7-14a75 75 0 0 0-9-15c-3-2-8-1-11 1m70-1c-2 2-4 5-4 8l10 21a332 332 0 0 1 9 21l-9 21-10 22c0 3 3 8 5 8l5 1c4 0 6-3 14-17l6-13 7 12c7 15 9 18 14 18s9-4 9-8c0-1-4-12-10-23l-10-21 10-20c6-11 10-22 10-23 0-4-4-8-9-8s-7 2-14 17l-7 13-6-13c-7-15-9-17-15-17l-5 1m-653 11c7 6 8 7 6 1-1-5-5-8-9-8h-3l6 7m94 28-1 5 7 1 6 1-6-6-6-6-1 5m1 65 49 49c2 0 6-10 8-19 2-6 2-14 3-24l1-16-36-35-8-1a662 662 0 0 0-53-3h-13l49 49m-101 48a57 57 0 0 0 13 18c18 18 57 28 78 21l7-1c3 2 21-5 29-11a91 91 0 0 0 17-16l-6 3c-16 8-33 12-52 13-27 1-53-6-75-21l-10-6h-1"
     fill="#49647d"
     id="path9" /><path
     d="M818 49a57 57 0 0 0-38 30 68 68 0 0 0 15 80 54 54 0 0 0 32 15l-9 1a126 126 0 0 0-35 11 62 62 0 0 0-17 13c-7 7-9 10-13 18-10 20-12 33-13 85l-2 50c-1 11 0 12 3 14h5c2-2 2-3 2-7a392 392 0 0 0 3-65c0-37 0-42 2-51 5-21 12-33 29-44a80 80 0 0 1 45-13c27 0 50 11 64 31 14 19 18 47 16 108-1 23 0 35 3 37s6 2 8-1l1-13a315 315 0 0 1 0-29c1-25-2-62-7-82-3-10-11-26-17-34a78 78 0 0 0-53-28c-9-1-11-2-6-2 11 0 27-7 37-16a63 63 0 0 0 20-55c-3-17-15-34-31-45a46 46 0 0 0-31-9l-14 1m-611 3c-3 2-5 9-5 20l-1 5h-5c-6 1-14 3-24 8l-18 8c-18 7-26 14-49 45a93 93 0 0 0-22 47c0 6-2 8-6 8-9 0-14 5-12 12 1 5 5 7 12 8h6v7c1 13 5 24 12 39 12 24 30 46 42 53l48 14 11 1v25l3 4c4 3 4 3 8 3 2-1 5-2 6-4 3-3 3-3 4-13v-11l9-1c24-5 40-13 64-32 18-16 21-19 29-40 7-18 9-25 11-43l1-5h10l13-1c6-3 7-10 3-14-1-2-3-2-14-2l-13 1-4-13c-9-40-28-67-55-80l-11-7a160 160 0 0 0-36-13l-5-1v-6c-3-23-5-27-12-22m604 11a43 43 0 0 0-25 28 66 66 0 0 0 0 31 55 55 0 0 0 27 36c6 3 7 4 18 4 14 0 21-3 32-10a46 46 0 0 0 21-38c1-15-4-26-16-38a60 60 0 0 0-27-14 79 79 0 0 0-30 1m-624 38a88 88 0 0 0-23 6c-17 6-23 11-39 31-17 20-25 35-27 50v5h4l13 1c9 0 12 1 14 5 1 4 0 10-3 12l-15 2H97v5c0 22 26 64 46 74l15 5a299 299 0 0 0 38 9l1-4c1-5 7-17 10-17h3c1 0 5 11 6 20v6l6-1c11-1 31-9 41-15a232 232 0 0 0 28-23c6-7 9-13 14-28 4-12 7-24 7-30v-4h-11c-11 0-12 0-13-2a11 11 0 0 1-1-5c1-3 1-4 6-5l12-3 7-1-1-3a136 136 0 0 0-13-36c-6-13-17-26-25-32a181 181 0 0 0-48-23l-6-1v12c0 9-3 15-9 15s-9-4-9-12-1-15-2-15l-13 2m632 423c-6 3-15 12-35 36-25 30-41 52-71 98-19 28-32 47-35 48-2 1-2-1-1-11 4-27 18-66 40-105 7-12 8-15 7-17-1-3-3-5-5-3a381 381 0 0 0-49 96c-10 31-11 45-3 53 3 4 4 4 8 4 13 0 21-9 64-76a651 651 0 0 1 36-52l36-43c4-4 4-4-3 9a7305 7305 0 0 0-27 57 2544 2544 0 0 1-22 46l-21 45c-7 16-18 49-20 57-3 16 2 26 12 28 6 1 12-2 21-11 7-7 30-39 56-76a335 335 0 0 1 12-16l1-1a552 552 0 0 0-22 79c-3 24 7 46 22 46 11 0 26-15 41-40a706 706 0 0 0 16-30 765 765 0 0 1 25-45c8-14 26-41 25-38a1145 1145 0 0 0-13 53c-3 15-3 21-3 35a80 80 0 0 0 7 35c4 9 8 13 11 12 7-1 8-8 3-22-3-9-3-9-3-26 0-19 0-22 12-71 7-30 7-35 6-42-1-9-6-12-13-9-6 2-14 12-27 30a625 625 0 0 0-32 53 1285 1285 0 0 1-44 76c-5 5-6 6-9 6-7-1-9-11-7-26a625 625 0 0 1 22-69l5-12a559 559 0 0 1 41-78c12-18 15-29 11-35-5-9-18 0-33 23a4252 4252 0 0 1-67 100l-25 37a621 621 0 0 1-19 24l-13 16-3 4v-3a481 481 0 0 1 26-72 8891 8891 0 0 0 58-122c18-37 21-49 16-55-3-4-8-4-15 0m-560 12c-10 2-29 19-35 32-6 11-8 20-8 36 0 12 0 14 2 22 7 20 23 34 45 41a86 86 0 0 0 40 1 58 58 0 0 0 38-29c10-21 12-43 5-58-4-8-19-26-26-32a104 104 0 0 0-28-12c-5-2-26-2-33-1m8 14-9 3c-6 0-10 2-17 10a57 57 0 0 0-15 41c0 11 2 17 6 26 6 11 21 23 35 26a88 88 0 0 0 35-1c11-3 16-5 23-12l9-14c10-25 7-43-9-60-8-8-17-14-27-18a48 48 0 0 0-31-1m-104 62c-9 1-11 10-2 13 4 1 39 2 42 0 2 0 2-4 0-6-3-3-6-4-18-5-16-3-18-3-22-2m39 33-16 6c-9 3-12 5-12 9s2 5 10 5l18-6 12-8c4-3 3-10-1-10l-11 4m130 22c-27 6-45 20-54 42-6 15-6 21-6 50 0 28 1 39 5 61 4 19 12 45 13 45 4 0 9-2 9-4l-4-16c-5-18-6-27-9-51a219 219 0 0 1-1-70 59 59 0 0 1 61-44c8 0 11 1 16 3 16 8 25 20 40 54l2 6 5-8 4-10-7-16a58 58 0 0 0-15-21 90 90 0 0 0-29-20 76 76 0 0 0-30-1m-107 4c-8 5-21 29-18 35l2 3c5 2 7-1 14-15l9-15c3-3 3-8 0-9-2-1-3-1-7 1m584 303c-2 1-2 3-2 7l2 33c0 30 1 32 6 31 3 0 4-1 5-5 3-8 3-25-1-46l-4-20c-1-2-4-3-7 0m96 37a214 214 0 0 0-27 42c-7 14-8 16-6 16s6-4 14-17a687 687 0 0 1 19-26c12-16 13-17 12-20-1-5-4-4-12 5m-194 7-2 5c2 7 29 47 35 51 3 2 4 2 6 0 4-4 2-10-9-23-8-9-12-14-20-27l-7-8-3 2m-491 49a14 14 0 0 0-4 4c-2 3-2 3-2 23 1 20 3 42 5 49 4 12 11 16 20 10 3-2 6-8 6-13l-11-68c-2-5-8-7-14-5m80 20c-2 2-3 3-3 15v13l-12-7c-12-7-15-8-17-5-7 6-1 16 16 25 13 7 12 6 7 12-7 7-13 11-18 12-5 0-7 2-8 6 0 5 0 8 4 12 5 6 13 5 25-5l8-5 3 10c2 6 3 10 5 12 4 4 12 2 14-5v-14l-1-11 5 3 27 13c2 0 6-5 6-7 0-4-2-7-10-11a311 311 0 0 1-25-16l12-14c12-15 13-18 9-22-5-4-8-3-24 11a49 49 0 0 1-7 5l-4-13c-3-13-4-16-8-16l-4 2m-173 6c-29 7-48 24-55 52a85 85 0 0 0-1 36 61 61 0 0 0 60 47 70 70 0 0 0 32-8 98 98 0 0 0 31-23c13-13 18-23 15-27-3-3-6-1-13 7-14 16-25 26-38 31-23 9-46 5-61-11a50 50 0 0 1-1-72 64 64 0 0 1 45-17c18 0 30 7 37 21 2 5 2 7 2 17 0 13-2 21-7 29s-12 8-15 1c-3-6-4-18-2-20 1-2 2-3 1-6-1-4-1-9 1-20 1-9 0-12-3-14s-5 0-7 5c-1 5-2 5-3 3a22 22 0 0 0-14-5c-21 0-36 37-25 60 4 10 9 15 17 17h7c5-1 12-8 14-12l2-3a19 19 0 0 1 3 5c10 18 33 7 41-20 7-27-5-58-27-69a56 56 0 0 0-36-3m830 11c-34 14-35 14-35 16-1 2 1 6 3 6 3 0 49-18 52-21 4-3 2-8-2-8l-18 7m-329 8c-3 2-3 6-1 8 6 6 38 16 44 14 2 0 3-2 3-3v-8a64 64 0 0 0-13-4l-20-5c-11-3-11-4-13-2m-503 25c-7 4-10 12-10 24 0 13 3 19 9 19 10 0 17-13 20-35 0-6 0-6-3-8a14 14 0 0 0-16-1m111 41c-5 1-9 4-11 8-5 12 1 25 12 24s17-13 13-24c-3-7-7-9-14-8m698 10c-1 3 0 6 3 7l34 10c12 2 12 2 14 0s3-6 1-8l-15-5-22-5c-11-3-13-3-15 1m-263 24c-15 6-18 8-19 10 0 3 2 6 4 6 5 0 36-12 38-15l1-3c0-2-3-6-5-6l-19 8m53 48-21 24a83 83 0 0 0-11 14c0 3 1 7 4 8 4 1 10-5 29-30 18-24 18-23 16-27-3-4-5-3-17 11m159-12c-3 3 0 9 14 34 9 16 15 23 19 22l4-3v-6l-11-17-14-20c-7-11-9-12-12-10m-85 17-9 41c-1 8-2 25 0 28 1 3 4 4 6 2a411 411 0 0 0 9-65c0-7-1-7-3-8-2 0-3 0-3 2m-596 211a24 24 0 0 0-18 21 22 22 0 0 1-1 5l-4-2c-11-8-28-1-32 13-1 5-2 11-2 37 0 19 0 20-2 19l-7-1c-13-1-23 8-27 25a989 989 0 0 0 0 102c1 8 8 33 12 40 9 22 31 38 64 45a164 164 0 0 0 40 3 124 124 0 0 0 31-10c19-9 38-34 44-57 4-17 5-28 6-93 0-54-1-64-4-72a29 29 0 0 0-25-16h-6v-8a38 38 0 0 0-6-20c-5-7-8-9-18-9l-10 2c-4 3-4 3-4-1s-4-14-7-17c-5-6-16-8-24-6m0 14a16 16 0 0 0-4 4c-2 3-3 5-3 25l-1 29-1 39-1 33 15 1h14a3161 3161 0 0 0-2-127l-5-4a17 17 0 0 0-12 0m-39 21c-4 2-5 7-7 26a308 308 0 0 0-1 37l2 53v36h7c20 2 41 22 46 45 1 6 1 18-1 20s-5 2-6 1l-3-12-5-16a57 57 0 0 0-34-26c-3 0-4 0-6 2-3 3-6 3-9-1l-2-2v-42c0-45 0-45-5-49-4-4-12-2-15 4-4 9-6 33-5 59v30c0 7 0 12 2 22 6 27 11 38 19 47 10 10 24 17 43 23 8 2 11 2 22 2a55 55 0 0 0 17-1 15 15 0 0 1 6-1c4 0 19-6 27-11a67 67 0 0 0 21-20c12-18 15-27 16-65a549 549 0 0 1 1-40l-1-39c0-29 0-31-2-35-4-8-15-11-18-4-2 4-4 28-4 52 0 21 0 22 2 22 3 2 4 4 1 7-2 2-6 2-21 0a536 536 0 0 0-56-3c-19 0-21-1-22-4 0-2 1-2 4-4l5-2v-21a2076 2076 0 0 0 1-68c1-2-2-13-4-17-4-5-11-8-15-5m78 1c-7 3-7 6-8 55a621 621 0 0 1-3 54c0 1 23 3 24 2a1012 1012 0 0 0 3-70v-34l-3-6c-2-2-8-3-13-1m661 65c-3 1-4 3-10 15l-7 14-7-13-9-15a9 9 0 0 0-14 7l10 22 10 20-10 21a214 214 0 0 0-10 22 9 9 0 0 0 14 7l9-15 7-13 7 14c6 11 7 14 10 15 6 2 12-2 12-8a112 112 0 0 0-10-23l-9-20 10-21c10-20 10-21 9-24s-3-5-7-6c-1-1-3 0-5 1m-182 1c-4 4-3 8 7 29l10 20-9 20c-7 13-10 21-10 24 0 6 7 10 13 7l9-15a85 85 0 0 1 8-14l6 14c7 13 9 16 14 16s9-4 9-8c0-2-4-12-10-23a270 270 0 0 1-9-21l9-21c6-10 10-20 10-22 0-4-4-8-9-8s-7 3-14 17l-7 13-7-13-8-15c-3-3-8-3-12 0m69 0c-4 4-4 8 7 30l10 20-9 19a202 202 0 0 0-11 22c-1 8 9 13 15 8l8-15 7-13 7 13 8 15a9 9 0 0 0 6 2c3 0 4-1 6-3l3-6-10-22c-10-20-10-20-9-23a692 692 0 0 1 19-41l-3-5c-2-2-3-3-6-3l-6 2-8 15a108 108 0 0 1-7 13l-7-12-8-15c-3-4-8-4-12-1"
     fill-opacity=".6"
     id="path10" /><path
     d="M821 49c-20 2-38 18-46 42a61 61 0 0 0-1 19c0 11 0 14 2 20 8 21 22 36 42 41a63 63 0 0 0 34-2c36-13 52-55 33-87a76 76 0 0 0-36-31 71 71 0 0 0-29-2m-615 4a50 50 0 0 0-4 20c0 4 0 4-5 4-7 1-18 5-27 10l-16 6c-12 5-17 8-27 18l-32 42a87 87 0 0 0-12 36c0 3 0 3-8 4-7 1-10 4-10 9 0 6 4 10 12 10l6 1 1 10c2 19 9 35 23 56 8 13 23 29 30 32 6 3 39 13 50 15l10 1-1 12c0 10 0 12 2 15 2 4 6 5 10 4 7-2 8-5 8-17 0-10 0-10 2-10l11-2c16-3 31-10 44-19 12-9 28-22 33-28 10-12 24-50 24-65 0-7 0-7 10-7 11 0 14-1 17-3 3-3 3-9 0-12-1-2-1-2-14-2l-14 1-2-12c-8-35-27-64-49-77l-17-10c-8-5-23-10-35-13-7-2-8-3-8-8 0-6-3-20-4-22-2-2-6-1-8 1m605 10a43 43 0 0 0-26 32 55 55 0 0 0 3 34c7 19 20 31 37 33a53 53 0 0 0 45-16 48 48 0 0 0 14-41 58 58 0 0 0-35-41c-5-2-8-3-19-3-12 0-15 0-19 2m-625 38a98 98 0 0 0-18 4 1065 1065 0 0 1-13 5c-6 2-14 8-19 14-12 14-27 34-31 43-4 7-8 25-7 26l14 1c12 0 13 1 15 3 3 3 3 10 0 13-2 1-4 2-16 2l-13 1v5c0 17 15 46 33 64 11 11 12 11 48 20 21 6 19 6 20 0 1-8 7-17 10-17s7 11 7 20l1 7a120 120 0 0 0 62-29c17-14 20-19 27-37 4-13 7-25 7-32v-4h-11c-8 0-11 0-12-2-2-1-2-6-1-8 1-1 10-4 18-5h6v-5a144 144 0 0 0-27-56 85 85 0 0 0-13-12c-13-9-38-21-50-22l-4-1v8c1 9-1 16-4 18s-7 1-10-2c-2-2-2-3-3-13V99h-3l-13 2m631 75c-13 2-29 8-40 14-26 18-36 48-36 108l-1 42c-1 25-1 26 4 26 3 0 5-2 4-7l1-15c2-7 2-18 2-51 1-48 1-53 9-70 17-34 67-48 105-29a72 72 0 0 1 31 29c10 17 14 46 12 88-1 39 0 49 3 51h7c1-2 2-68 1-82-3-28-6-44-12-57a74 74 0 0 0-60-47h-31m6 346c-8 3-13 9-37 37a913 913 0 0 0-72 100c-22 33-32 47-36 47s2-28 10-52a370 370 0 0 1 30-65 68 68 0 0 0 7-14c0-3-1-5-4-5l-10 13c-23 38-38 73-46 106-4 18-1 30 8 33 8 2 16-2 26-14l37-56a735 735 0 0 1 62-83c19-23 19-23 14-12a32646 32646 0 0 1-53 110 678 678 0 0 0-31 71c-8 24-9 28-9 36-1 10 2 15 8 18 9 4 18 0 30-14a1448 1448 0 0 0 47-66l18-25-6 17a586 586 0 0 0-16 57c-5 24 1 46 15 52 16 7 35-13 62-65a924 924 0 0 1 51-87l-4 19c-6 24-10 39-11 52-2 14-1 33 2 43a65 65 0 0 0 10 20c2 3 6 2 9 0 3-4 3-7 0-15-9-23-8-40 10-114 4-16 5-30 3-35-4-7-12-6-21 3a485 485 0 0 0-58 93c-21 40-28 52-37 61-6 5-10 5-13 1s-4-14-2-24a704 704 0 0 1 22-69c11-27 28-61 44-86 10-15 13-23 14-30 0-5 0-6-2-9-7-7-18 2-39 35l-75 112c-20 28-44 59-45 57-1-1 2-14 6-26a349 349 0 0 1 17-44 14632 14632 0 0 0 62-128c12-25 16-34 17-44 0-6 0-7-2-9-3-3-6-4-12-2m-556 14c-12 1-16 3-29 16a61 61 0 0 0-21 48c-1 23 4 35 17 49a66 66 0 0 0 49 20c14 1 24-1 35-7a51 51 0 0 0 27-31 78 78 0 0 0 5-36c-1-12-3-16-13-28a70 70 0 0 0-28-24c-16-7-22-8-42-7m7 12a72 72 0 0 0-9 3c-5 2-7 2-8 1-4-2-19 12-24 23a79 79 0 0 0-6 39 55 55 0 0 0 41 43 77 77 0 0 0 46-5c9-5 16-11 20-20 8-17 9-35 3-47a85 85 0 0 0-24-27c-12-8-29-12-39-10m-115 66a6 6 0 0 0-2 5c1 6 4 6 27 6 21 0 24 0 22-4-3-4-6-5-19-7-18-3-25-3-28 0m46 31-18 6c-11 4-15 8-10 12 1 2 3 2 7 2a45 45 0 0 0 18-6c12-7 15-9 15-13 0-2-2-5-3-5l-9 4m131 23c-29 4-50 20-58 45-5 15-5 22-5 45a285 285 0 0 0 18 106c1 1 7-1 9-2l-4-18a341 341 0 0 1-10-52c-4-27-5-52-2-65a73 73 0 0 1 13-27 65 65 0 0 1 55-20 54 54 0 0 1 34 23c4 6 13 23 17 33l2 5 3-4 5-8 1-3-4-9c-9-20-15-29-28-38-10-7-19-11-28-12h-18m-112 6c-7 7-16 24-16 31 0 5 5 7 9 2 2-1 5-7 7-13a72 72 0 0 1 8-14c3-3 4-6 2-8s-6-1-10 2m585 302v11a488 488 0 0 1 3 57c2 4 6 2 9-3 3-6 2-27-1-49l-3-17c-1-2-7-1-8 1m104 29a231 231 0 0 0-38 55c-4 7-5 10-3 10s6-5 14-18a584 584 0 0 1 31-43c0-4-2-6-4-4m-202 14c-3 3-1 8 11 27l23 30c3 1 7-3 7-6s-4-10-11-18a192 192 0 0 1-20-26c-5-8-7-9-10-7m-490 49-5 5c-2 2-2 4-2 21 1 22 3 43 6 51 2 6 5 11 9 11 4 1 11-2 14-6 3-5 2-12-4-47-5-30-5-31-8-33-3-3-6-4-10-2m80 19c-3 2-4 6-4 18v11l-12-7-14-7-4 3c-6 7 1 16 21 26l8 4-8 8c-8 8-9 9-18 10-3 1-5 6-5 11 2 8 7 12 15 10 5-1 9-4 17-10l6-4 3 11c2 11 4 14 9 14l6-2 3-3-1-14v-13l6 3 25 12c3 1 7-2 7-6 0-5-2-7-12-12l-23-15 18-21 5-9c0-4-3-8-6-8s-13 7-23 15l-4 4-4-14c-3-16-5-18-11-15m-171 7a69 69 0 0 0-58 53c-3 11-2 30 1 40a64 64 0 0 0 38 39 75 75 0 0 0 36 1 102 102 0 0 0 63-52c0-2-2-5-4-5-1 0-7 5-13 12-22 23-34 30-56 32a47 47 0 0 1-40-16 50 50 0 0 1-9-60c5-10 13-17 25-23a64 64 0 0 1 43-4c19 6 29 24 24 47-2 9-6 19-9 22s-8 3-11 0l-3-6c-2-6-2-17-1-18l1-8 1-18c0-9 0-10-2-12-3-3-5-2-7 4l-2 5-5-4c-12-8-25-2-33 14a53 53 0 0 0-6 23c-2 19 10 37 24 37 7 0 13-5 17-12l2-4 2 3c6 12 13 15 23 9 12-6 20-23 21-43 0-18-6-31-18-43a39 39 0 0 0-30-14l-14 1m819 15a824 824 0 0 0-26 11c-1 1-1 6 1 7 1 0 7-1 22-7 31-12 33-13 33-17l-4-4-26 10m-321 6-2 4c1 3 1 4 8 7a94 94 0 0 0 32 9c6 0 7 0 8-2v-6a758 758 0 0 1-46-13m-500 23c-9 4-13 13-13 27 0 9 2 16 6 18 3 1 3 1 7-1 3-1 6-3 7-5a67 67 0 0 0 8-28c1-6 1-7-1-9s-7-4-9-4l-5 2m103 44c-5 3-7 8-7 14-1 11 6 17 15 16 11-2 16-20 8-29-3-2-4-3-9-3l-7 2m704 6v8c3 2 42 12 47 12 4 0 6-4 4-8a774 774 0 0 0-51-12m-264 26c-17 7-20 9-18 13 1 3 3 3 14-1 24-8 29-11 27-16-1-4-6-3-23 4m64 36-13 15a680 680 0 0 1-18 21c-9 9-12 14-11 17 1 5 3 6 8 2 5-3 9-8 26-31 14-18 16-22 12-24h-4m148 0c-3 3-1 7 14 34 9 15 14 22 17 22 4 0 6-3 6-7a633 633 0 0 1-27-42c-5-8-7-9-10-7m-85 16-2 11-5 22c-3 14-4 34-2 37 1 2 2 2 4 2s3-1 4-6a445 445 0 0 0 6-65c-1-2-4-2-5-1m-598 213a24 24 0 0 0-15 19l-2 6-3-2c-8-6-23-3-30 6-3 5-4 12-5 39 0 23-1 25-2 25l-7-2c-5 0-7 0-11 2-15 7-19 25-17 73l1 37c0 15 0 18 6 38 6 21 9 27 20 38a79 79 0 0 0 35 20c12 4 21 6 36 7a74 74 0 0 0 33-3 70 70 0 0 0 36-21 97 97 0 0 0 28-57l1-76-1-72c-4-11-16-19-27-19l-5 1-1-10c-1-11-4-18-9-23s-15-6-23-3c-5 2-5 2-5 0 0-4-3-12-6-16-1-2-4-5-7-6a30 30 0 0 0-20-1m5 12-5 3c-4 3-5 7-5 27l-1 25a444 444 0 0 0 0 76l15 1 13 1-1-59-1-63c-1-7-3-10-11-11h-4m-44 23c-3 4-4 7-5 27a379 379 0 0 0 0 42 752 752 0 0 1 1 65v17l8 1c17 2 32 14 40 32 6 12 7 28 3 33-3 3-5 1-8-13-4-17-8-23-21-33a46 46 0 0 0-18-8c-4-1-4-1-6 1-1 2-6 3-8 1s-3-30-3-64c0-23 0-24-2-27-5-8-14-7-18 1-5 11-6 19-5 61 0 39 0 40 2 52 5 22 9 32 15 40 10 14 25 22 48 28a94 94 0 0 0 43 0 78 78 0 0 0 49-31c12-16 15-27 16-66a1400 1400 0 0 0-1-112c-3-5-8-9-13-9s-8 3-8 10a449 449 0 0 0-2 53c0 13 0 15 2 16 2 0 3 4 0 6-2 2-7 2-24 0a578 578 0 0 0-72-4c-3-2-2-4 2-7 5-2 5-2 5-6l1-46c1-48 1-51-6-58-3-3-4-4-8-4s-5 1-7 2m84-1c-6 1-9 4-10 8-1 2-2 19-2 41a1128 1128 0 0 1-3 62l24 2 1-19a648 648 0 0 1 3-75c-1-11-1-13-3-16s-5-4-10-3m475 68c-4 4-3 7 7 28l10 21-10 20c-6 13-9 20-9 23 0 7 9 11 14 6l9-16 6-13 7 14a88 88 0 0 0 9 15c2 2 8 3 10 1s4-5 4-8l-10-22-10-20 4-9 10-21a68 68 0 0 0 6-14l-3-5c-3-3-8-4-11-1l-9 16-7 14-6-14c-4-8-8-15-10-16-3-3-8-3-11 1m71-2a11 11 0 0 0-4 5c-1 4-2 2 11 30l8 16-10 20a128 128 0 0 0-9 23c-1 7 8 10 13 6l9-15 7-13 7 13 9 15c3 3 7 3 11 0 4-4 3-7-7-29l-10-20 10-20c10-23 11-26 7-30-4-2-8-2-11 0l-9 15-7 13-7-13-9-15a9 9 0 0 0-9-1m67 2-3 5a126 126 0 0 0 8 20l10 21c2 3 2 3-8 23a169 169 0 0 0-10 23c0 3 5 8 9 8 5 0 7-3 14-17l7-14 6 13c8 15 11 19 15 18 5-1 8-5 8-9l-7-17-9-19-3-7 10-21c11-22 11-23 7-28-3-3-9-3-12 0l-9 16-6 14-7-14-9-16c-4-3-8-2-11 1"
     fill-opacity=".9"
     id="path11" /><rect
     style="opacity:0.44;fill:#d40000;stroke:none;stroke-width:0.999999;stroke-linecap:round"
     id="rect157"
     width="417.47488"
     height="416.99097"
     x="1088.3857"
     y="1276.8168"
     inkscape:export-filename="8.png"
     inkscape:export-xdpi="265.196"
     inkscape:export-ydpi="265.196" /></svg>
