<?xml version="1.0" encoding="UTF-8" standalone="no"?>
<svg
   width="458.55615"
   height="522.98169"
   viewBox="0 0 458.55615 522.98169"
   fill="none"
   version="1.1"
   id="svg57"
   xmlns="http://www.w3.org/2000/svg"
   xmlns:svg="http://www.w3.org/2000/svg">
  <defs
     id="defs55" />
  <path
     fill-rule="evenodd"
     clip-rule="evenodd"
     d="m 56.339414,55.122181 c 100.889996,-81.654 251.149996,-68.502 348.449996,12.515 82.13,68.375999 55.58,189.878999 16.37,291.231999 -33.38,86.268 -100.12,163.233 -192.52,164.105 -92.6,0.874 -156.609996,-74.963 -188.109996,-160.513 -38.8700003,-105.542 -73.784,-234.826 15.81,-307.338999 z"
     fill="#c7f9cc"
     id="path10-6"
     clip-path="none" />
  <path
     fill-rule="evenodd"
     clip-rule="evenodd"
     d="m 285.65941,474.25318 c -100.23,15.743 -153.42,-79.509 -195.629996,-156.21 -40.28,-73.186 -81.7400003,-162.115 -12.91,-222.704999 71.709996,-63.134 187.979996,-48.676 272.819996,-6.095 68.94,34.601999 79.81,107.743999 68.21,177.263999 -14.21,85.118 -33.34,192.172 -132.49,207.746 z"
     fill="#22577a"
     id="path12-1"
     clip-path="none" />
  <path
     fill-rule="evenodd"
     clip-rule="evenodd"
     d="m 291.08941,141.44218 c 50.94,21.141 72.43,78.992 57.08,130.639 -12.95,43.589 -66.73,57.592 -114.62,62.995 -40.77,4.598 -83.74,-4.898 -100.57,-38.723 -16.86,-33.894 2.33,-72.278 31.24,-100.604 35.67,-34.947 81.62,-73.082 126.87,-54.307 z"
     fill="#57cc99"
     id="path14-8"
     clip-path="none" />
  <path
     fill-rule="evenodd"
     clip-rule="evenodd"
     d="m 162.80941,307.79918 c -24.22,-33.794 4.74,-71.994 28.17,-102.529 22.35,-29.135 50.85,-61.786 87.58,-48.318 38.27,14.034 53.17,59.637 51.11,99.177 -1.67,32.132 -29.25,50.44 -59.38,59.77 -36.89,11.423 -83.51,25.331 -107.48,-8.1 z"
     fill="#22577a"
     id="path16-7"
     clip-path="none" />
  <path
     fill-rule="evenodd"
     clip-rule="evenodd"
     d="m 270.37941,289.46318 c -17.43,10.902 -39.64,4.925 -52.01,-10.896 -10.43,-13.353 -3.07,-32.708 5.64,-48.421 7.42,-13.374 19.59,-24.369 33.49,-22.17 13.94,2.203 21.45,16.326 23.8,31.227 2.91,18.382 4.56,40.578 -10.92,50.26 z"
     fill="#80ed99"
     id="path18-9"
     clip-path="none" />
  <path
     fill-rule="evenodd"
     clip-rule="evenodd"
     d="m 247.57941,214.56218 c 15.5,-0.055 20.84,16.995 25.05,30.708 4.02,13.085 7.77,28.795 -4.25,37.038 -12.53,8.589 -29.6,3.258 -41.16,-5.912 -9.4,-7.451 -9,-19.783 -5.32,-30.948 4.5,-13.671 10.35,-30.833 25.68,-30.886 z"
     fill="#22577a"
     id="path20-2"
     clip-path="none" />
</svg>
