<?xml version="1.0" encoding="UTF-8" standalone="no"?>
<svg
   width="1920"
   height="230.04749"
   viewBox="0 0 1920 230.04749"
   fill="none"
   version="1.1"
   id="svg57"
   sodipodi:docname="Frame 13.svg"
   inkscape:version="1.2.2 (b0a8486541, 2022-12-01)"
   xmlns:inkscape="http://www.inkscape.org/namespaces/inkscape"
   xmlns:sodipodi="http://sodipodi.sourceforge.net/DTD/sodipodi-0.dtd"
   xmlns="http://www.w3.org/2000/svg"
   xmlns:svg="http://www.w3.org/2000/svg">
  <sodipodi:namedview
     id="namedview59"
     pagecolor="#ffffff"
     bordercolor="#999999"
     borderopacity="1"
     inkscape:showpageshadow="0"
     inkscape:pageopacity="0"
     inkscape:pagecheckerboard="0"
     inkscape:deskcolor="#d1d1d1"
     showgrid="false"
     showguides="false"
     inkscape:zoom="0.38032638"
     inkscape:cx="1585.4803"
     inkscape:cy="468.01907"
     inkscape:window-width="1920"
     inkscape:window-height="1011"
     inkscape:window-x="0"
     inkscape:window-y="0"
     inkscape:window-maximized="1"
     inkscape:current-layer="svg57" />
  <path
     fill-rule="evenodd"
     clip-rule="evenodd"
     d="m 2010.53,1760.81 c 305.4,320.14 282.82,750.82 296.81,1105 12.44,314.88 -59,572.26 -223.39,753.55 -187.55,206.82 -396.34,501.97 -751.16,321.17 C 979.932,3760.72 882.933,3228.92 613.179,2869.9 367.537,2542.98 -105.978,2306.38 -148.596,1968.96 c -42.6,-337.28 352.64,-323.19 596.011,-411.48 176.166,-63.91 374.496,-48.25 592.895,-19.84 326.67,42.49 666.66,-95.05 970.22,223.17 z"
     fill="#38a3a5"
     id="path6"
     clip-path="url(#clipPath2493)"
     transform="translate(7.5e-5,-1512.9221)"
     inkscape:export-filename="../Documents/Mythos/infoWebsite/images/svg/styletop.svg"
     inkscape:export-xdpi="96"
     inkscape:export-ydpi="96" />
  <defs
     id="defs55">
    <clipPath
       clipPathUnits="userSpaceOnUse"
       id="clipPath2493">
      <path
         id="path2495"
         style="opacity:0.532164;fill:#ff7f2a;stroke-width:0.999996;stroke-linecap:round"
         d="M -1e-4,1422.7396 H 1920 v 320.23 H -1e-4 Z" />
    </clipPath>
  </defs>
</svg>
